<svg xmlns="http://www.w3.org/2000/svg" version="1.1" xmlns:xlink="http://www.w3.org/1999/xlink" xmlns:svgjs="http://svgjs.dev/svgjs" width="35" height="35"><svg id="SvgjsSvg1011" xmlns="http://www.w3.org/2000/svg" xmlns:xlink="http://www.w3.org/1999/xlink" version="1.1" viewBox="0 0 35 35">
  <!-- Generator: Adobe Illustrator 29.1.0, SVG Export Plug-In . SVG Version: 2.1.0 Build 142)  -->
  <defs>
    <style>
      .st0 {
        fill: url(#linear-gradient);
      }

      .st1 {
        fill: #fc0c6c;
      }

      .st2 {
        fill: #0700a2;
      }

      .st3 {
        stroke: #fc0c6c;
      }

      .st3, .st4 {
        fill: none;
        stroke-linecap: round;
        stroke-linejoin: round;
        stroke-width: 2.0227px;
      }

      .st5 {
        fill: #5dd436;
      }

      .st4 {
        stroke: #5dd436;
      }
    </style>
    <linearGradient id="SvgjsLinearGradient1010" x1="17.0718" y1="29.3422" x2="17.0718" y2="5.6725" gradientUnits="userSpaceOnUse">
      <stop offset=".0006" stop-color="#0902e6"></stop>
      <stop offset=".0986" stop-color="#110be6"></stop>
      <stop offset=".4573" stop-color="#2d27e9"></stop>
      <stop offset=".7699" stop-color="#3e38eb"></stop>
      <stop offset="1" stop-color="#443fec"></stop>
    </linearGradient>
  </defs>
  <path class="st5" d="M19.7911,15.4419l.2848.0088,3.0662.0952-2.7836,4.5017.0892-.7819.2556-2.2404-1.1173-.0348.2052-1.5487M20.3325,2.2966c-.4047,0-.7877.2282-.9747.6069l-1.8536,13.9925c-.164.3315-4.9898,1.1407-4.7993,1.458.1905.3173.5291.5163.8991.5277l4.7808.1487-.9547,8.3696c-.0599.5255-1.7154,1.6241-1.2083,1.7735.102.0298.2051.0439.307.0439.4051,0,.7883-.2274.9753-.6063l8.3589-13.518c.1643-.3318.148-.7242-.0425-1.0415-.1905-.3173-.5291-.516-.8988-.5277l-4.7815-.1484,1.2736-9.8672c.0599-.5252-.2667-1.0178-.7738-1.1669-.102-.0303-.2056-.0449-.3077-.0449h0Z"></path>
  <path class="st1" d="M18.5249,7.3763h.005-.005M14.1925,14.4786l-.2952.9321-.8288,2.6169,1.4321.0444-.188,1.5491-.1269-.0039-3.0764-.0957,3.0832-5.0429M17.6379,5.8503c-.4047,0-.7877.2282-.9747.6069l-8.2646,13.5176c-.164.3315-.148.7239.0425,1.0412.1905.3173.5291.5163.8991.5277l4.7808.1487-1.3338,10.18c-.0599.5255.2667,1.0178.7738,1.1672.102.0297.205.0439.307.0439.4051,0,.7883-.2273.9753-.6063l1.8171-14.9699c.1643-.3318,5.0869-.4764,4.8964-.7937-.1905-.3173-.5291-.516-.8988-.5277l-4.7815-.1484,2.8428-8.9755c.0599-.5252-.2667-1.0178-.7738-1.1669-.102-.0303-.2056-.0449-.3077-.0449h0Z"></path>
  <path class="st0" d="M23.3264,15.4557c-.1817-.3026-.5046-.4921-.8572-.5033l-4.5605-.1415.9106-7.9827c.0571-.5009-.2543-.9707-.738-1.1129-.483-.1435-.9998.0838-1.223.536l-6.0818,12.3149c-.1564.3161-.1412.6904.0405.993s.5046.4925.8576.5033l4.5598.1419-.9106,7.9827c-.0571.5012.2543.9707.738,1.1133.0973.0284.1956.0419.2928.0419.3864,0,.7519-.2168.9302-.5783l6.0821-12.3149c.1567-.3165.1412-.6907-.0405-.9934Z"></path>
  <polyline class="st4" points="18.089 3.2599 20.6604 1.2306 22.6898 3.802"></polyline>
  <polyline class="st3" points="16.1325 31.9214 13.4891 33.8561 11.5545 31.2127"></polyline>
  <path class="st2" d="M15.3249,28.1942c-.0314.2756.0559.5353.2145.7428.2779-1.6463,1.3129-7.2909,1.654-9.1472.0576-.3132-.179-.6018-.4974-.6091l-4.805-.1105c-.1831-.0042-.3048-.1885-.2286-.355.8733-1.9081,5.0857-11.1258,5.8281-12.9995-.2652.0819-.4993.2562-.6296.5202l-6.088,12.3275c-.1565.3165-.1413.6911.0406.994.0455.0757.0998.1444.1612.205.1842.1817.4323.2907.6973.2988l4.5645.142-.9115,7.991Z"></path>
</svg><style>@media (prefers-color-scheme: light) { :root { filter: none; } }
@media (prefers-color-scheme: dark) { :root { filter: none; } }
</style></svg>