<?xml version="1.0" encoding="UTF-8"?>
<svg id="Layer_1" xmlns="http://www.w3.org/2000/svg" version="1.1" viewBox="0 0 35 35">
  <!-- Generator: Adobe Illustrator 29.1.0, SVG Export Plug-In . SVG Version: 2.1.0 Build 142)  -->
  <defs>
    <style>
      .st0 {
        fill: #443fec;
      }

      .st1 {
        fill: #fc0c6c;
      }
    </style>
  </defs>
  <path class="st0" d="M18.7162,14.4663c-.2687-.4475-.7462-.7277-1.2676-.7442l-6.7435-.2093,1.3465-11.8039c.0844-.7407-.3761-1.4354-1.0913-1.6457-.7142-.2123-1.4784.1239-1.8085.7926L.1588,19.0657c-.2312.4675-.2088,1.0209.0599,1.4684s.7462.7282,1.2681.7442l6.7425.2098-1.3465,11.8039c-.0844.7412.3761,1.4354,1.0913,1.6462.1438.042.2892.0619.433.0619.5714,0,1.1118-.3206,1.3755-.8551l8.9935-18.2098c.2317-.468.2088-1.0214-.0599-1.4689ZM10.9288,24.8942l.5379-4.7148c.0489-.4265-.0834-.8531-.3641-1.1777-.2802-.3246-.6837-.5164-1.1128-.5294l-6.0238-.1868,4.039-8.1789-.5374,4.7143c-.0489.426.0834.8531.3636,1.1777.2807.3241.6842.5164,1.1133.5299l6.0243.1868-4.04,8.1789Z"/>
  <path class="st1" d="M27.0548,10.7959c.8471,0,1.5343-.6867,1.5343-1.5343v-.9869c0-.8476-.6872-1.5343-1.5343-1.5343s-1.5343.6867-1.5343,1.5343v.9869c0,.8476.6872,1.5343,1.5343,1.5343Z"/>
  <path class="st1" d="M34.5505,25.97c-.5993-.5993-1.5703-.5993-2.1696,0l-3.7918,3.7918v-15.8319c0-.8476-.6872-1.5343-1.5343-1.5343s-1.5343.6867-1.5343,1.5343v15.8319l-3.7918-3.7918c-.5993-.5993-1.5703-.5993-2.1696,0s-.5993,1.5703,0,2.1696l6.4109,6.4109c.2997.2997.6922.4495,1.0848.4495s.7851-.1498,1.0848-.4495l6.4109-6.4109c.5993-.5993.5993-1.5703,0-2.1696Z"/>
</svg>