<?xml version="1.0" encoding="UTF-8"?>
<svg id="Layer_1" xmlns="http://www.w3.org/2000/svg" version="1.1" viewBox="0 0 35 35">
  <!-- Generator: Adobe Illustrator 29.1.0, SVG Export Plug-In . SVG Version: 2.1.0 Build 142)  -->
  <defs>
    <style>
      .st0 {
        fill: #fff;
        fill-rule: evenodd;
      }
    </style>
  </defs>
  <path class="st0" d="M17.5,3.501c-3.8652,0-7.0004,3.1335-7.0004,6.9987,0,1.9802-.4823,4.7954-1.401,7.5531-.5266,1.5766-1.2189,3.209-2.0967,4.6972h20.9961c-.8777-1.488-1.57-3.1204-2.0967-4.6972-.9187-2.7578-1.401-5.5733-1.401-7.5531,0-3.8652-3.1351-6.9987-7.0004-6.9987h0ZM7.0003,10.4997C7.0003,4.7018,11.7004,0,17.5,0s10.4997,4.7018,10.4997,10.4997c0,1.5208.3921,3.9555,1.2223,6.4477.8351,2.5035,2.0393,4.8383,3.5158,6.3145.5004.5004.6497,1.2534.379,1.908-.2707.653-.9089,1.0795-1.6176,1.0795H3.5009c-.7087,0-1.3469-.4265-1.6176-1.0795-.2707-.6546-.1214-1.4076.379-1.908,1.4765-1.4765,2.6807-3.8111,3.5158-6.3145.8302-2.492,1.2223-4.9265,1.2223-6.4477h0Z"/>
  <path class="st0" d="M12.419,30.1964c.7202-.6448,1.8276-.584,2.4723.1362.6431.7186,1.5717,1.1664,2.6085,1.1664s1.9654-.4479,2.6085-1.1664c.6448-.7202,1.7522-.7809,2.4723-.1362.7202.6431.7809,1.7505.1362,2.4707-1.2797,1.4289-3.1434,2.3329-5.2171,2.3329s-3.9374-.9039-5.2171-2.3329c-.6448-.7202-.5824-1.8276.1362-2.4707h.0002Z"/>
</svg>