<?xml version="1.0" encoding="UTF-8"?>
<svg id="Layer_1" xmlns="http://www.w3.org/2000/svg" version="1.1" viewBox="0 0 33 20">
  <!-- Generator: Adobe Illustrator 29.1.0, SVG Export Plug-In . SVG Version: 2.1.0 Build 142)  -->
  <defs>
    <style>
      .st0 {
        fill: #e2f5f3;
      }
    </style>
  </defs>
  <path class="st0" d="M32.764,17.7192L21.7387.6894c-.272-.4206-.7402-.6787-1.2474-.6894-.515.0039-.9852.2291-1.275.6391l-6.9697,9.8617-3.341-3.6044c-.3248-.351-.8023-.5298-1.2809-.4776-.4805.0503-.9073.322-1.1493.7319L.2041,17.7705c-.2716.4592-.272,1.0258-.002,1.486.2706.4602.7708.7435,1.3119.7435h29.972c.5525,0,1.0606-.2949,1.3267-.7696s.2474-1.0539-.0488-1.5112ZM20.4056,4.17l2.3078,3.5647-.1915.1093-.4081-.2417c-.8428-.4979-1.7555-.8653-2.7146-1.0945-.191-.0451-.385-.0673-.5783-.0956l1.5847-2.2422ZM4.1409,17.0299l3.9171-6.6335,3.2286,3.4835c.31.3355.7595.5086,1.2198.4834.4603-.03.8817-.2639,1.1449-.6362l2.9913-4.2327.0569-.0185c.6412-.2108,1.3312-.2378,1.9861-.0812.6589.1566,1.2868.4099,1.8654.7512l1.1749.6952c.2405.1421.5111.2137.7821.2137.2632,0,.5264-.0667.7614-.2021l1.0679-.6097,4.3938,6.7868H4.1409Z"/>
</svg>