<?xml version="1.0" encoding="UTF-8"?>
<svg id="Layer_1" xmlns="http://www.w3.org/2000/svg" version="1.1" viewBox="0 0 52 28">
  <!-- Generator: Adobe Illustrator 29.1.0, SVG Export Plug-In . SVG Version: 2.1.0 Build 142)  -->
  <defs>
    <style>
      .st0 {
        fill: #e4da16;
      }
    </style>
  </defs>
  <path class="st0" d="M26,8.2772c.8466,0,1.5326-.6976,1.5326-1.5586V1.5586c0-.861-.686-1.5586-1.5326-1.5586s-1.5326.6976-1.5326,1.5586v5.1599c0,.861.686,1.5586,1.5326,1.5586Z"/>
  <path class="st0" d="M42.5065,19.493c.244.6002.8147.963,1.4164.963.1956,0,.3941-.0386.5857-.1192l4.6846-1.9721c.7823-.3288,1.1534-1.2405.8297-2.0361-.3233-.7955-1.2223-1.173-2.0021-.8437l-4.6846,1.9721c-.7823.3293-1.1534,1.2405-.8297,2.0361Z"/>
  <path class="st0" d="M2.8068,18.3646l4.6841,1.9716c.1916.0812.3901.1192.5857.1192.6017,0,1.1724-.3628,1.4164-.963.3238-.7955-.0479-1.7073-.8297-2.0361l-4.6841-1.9716c-.7823-.3318-1.6788.0482-2.0021.8437-.3238.7955.0479,1.7073.8297,2.0361Z"/>
  <path class="st0" d="M17.165,8.8104c.2445.6002.8147.963,1.4164.963.1956,0,.3941-.0386.5857-.1192.7823-.3293,1.1534-1.2405.8297-2.0361l-1.9392-4.7637c-.3243-.7961-1.2218-1.1735-2.0021-.8437-.7823.3293-1.1534,1.2405-.8297,2.0361l1.9392,4.7637Z"/>
  <path class="st0" d="M32.8324,9.6552c.1916.0807.3901.1192.5857.1192.6012,0,1.1719-.3628,1.4164-.963l1.9397-4.7647c.3238-.795-.0474-1.7068-.8297-2.0361-.7803-.3303-1.6783.0482-2.0021.8437l-1.9397,4.7647c-.3238.795.0474,1.7068.8297,2.0361Z"/>
  <path class="st0" d="M50.4674,24.8827h-8.3663c-.7753-8.3433-7.6976-14.8947-16.1011-14.8947s-15.3258,6.5514-16.1011,14.8947H1.5326c-.8466,0-1.5326.6976-1.5326,1.5586s.686,1.5586,1.5326,1.5586h48.9348c.8466,0,1.5326-.6976,1.5326-1.5586s-.686-1.5586-1.5326-1.5586ZM26,13.1053c6.7118,0,12.2536,5.1567,13.016,11.7775H12.984c.7624-6.6208,6.3042-11.7775,13.016-11.7775Z"/>
  <path class="st0" d="M39.7137,14.054c.3921,0,.7843-.1522,1.0836-.4566l3.5876-3.6485c.5987-.6083.5987-1.5957,0-2.204-.5987-.6088-1.5685-.6088-2.1672,0l-3.5876,3.6485c-.5987.6083-.5987,1.5957,0,2.204.2993.3044.6915.4566,1.0836.4566Z"/>
  <path class="st0" d="M11.2027,13.5974c.2993.3044.6915.4566,1.0836.4566s.7843-.1522,1.0836-.4566c.5987-.6083.5987-1.5957,0-2.204l-3.5876-3.6485c-.5987-.6088-1.5685-.6088-2.1672,0-.5987.6083-.5987,1.5957,0,2.204l3.5876,3.6485Z"/>
</svg>