<?xml version="1.0" encoding="UTF-8"?>
<svg id="Layer_1" xmlns="http://www.w3.org/2000/svg" version="1.1" viewBox="0 0 35 35">
  <!-- Generator: Adobe Illustrator 29.1.0, SVG Export Plug-In . SVG Version: 2.1.0 Build 142)  -->
  <defs>
    <style>
      .st0 {
        fill: #FFFFFF;
      }
    </style>
  </defs>
  <path class="st0" d="M28.0908.2305H6.8423c-2.1045,0-3.8169,1.7124-3.8169,3.8169v26.9507c0,2.1045,1.7124,3.8174,3.8169,3.8174h21.2485c2.1045,0,3.8174-1.7129,3.8174-3.8174V4.0474c0-2.1045-1.7129-3.8169-3.8174-3.8169ZM29.9082,4.0474v3.958h-14.0962V2.2305h12.2788c1.002,0,1.8174.8149,1.8174,1.8169ZM6.8423,2.2305h6.9697v5.7749H5.0254v-3.958c0-1.002.8149-1.8169,1.8169-1.8169ZM28.0908,32.8154H6.8423c-1.002,0-1.8169-.8154-1.8169-1.8174V10.0054h24.8828v20.9927c0,1.002-.8154,1.8174-1.8174,1.8174Z"/>
  <path class="st0" d="M17.4668,12.0454c-5.1216,0-9.2886,4.167-9.2886,9.2886s4.167,9.2891,9.2886,9.2891,9.2881-4.167,9.2881-9.2891-4.167-9.2886-9.2881-9.2886ZM17.4668,28.623c-4.019,0-7.2886-3.2695-7.2886-7.2891s3.2695-7.2886,7.2886-7.2886c2.2064,0,4.1827.9894,5.5203,2.5435h-.743c-.2668,0-.5193.0547-.7573.1396-1.1164-.9755-2.5303-1.5239-4.02-1.5239-3.3799,0-6.1299,2.7495-6.1299,6.1294s2.75,6.1299,6.1299,6.1299c1.4889,0,2.903-.5489,4.0203-1.5242.238.0848.4904.1395.757.1395h.7433c-1.3376,1.5544-3.3141,2.5439-5.5207,2.5439ZM24.7549,21.334c0,.9713-.1946,1.897-.5408,2.7451h-1.9699c-.1504,0-.2725-.1221-.2725-.2725v-4.9453c0-.1504.1221-.2725.2725-.2725h1.9698c.3463.8481.541,1.7739.541,2.7451ZM20.0916,24.5009c-.7397.6145-1.6568.963-2.6248.963-2.2773,0-4.1299-1.8525-4.1299-4.1299s1.8525-4.1294,4.1299-4.1294c.9689,0,1.886.3484,2.6251.9619-.0715.2204-.1202.451-.1202.6949v4.9453c0,.2437.0486.474.1199.6942Z"/>
  <path class="st0" d="M26.0039,7.5801c1.3398,0,2.4307-1.0908,2.4307-2.4312s-1.0908-2.4307-2.4307-2.4307-2.4307,1.0903-2.4307,2.4307,1.0908,2.4312,2.4307,2.4312ZM26.0039,4.7183c.2373,0,.4307.1934.4307.4307,0,.2378-.1934.4312-.4307.4312s-.4307-.1934-.4307-.4312c0-.2373.1934-.4307.4307-.4307Z"/>
</svg>