<?xml version="1.0" encoding="UTF-8"?>
<svg id="Layer_1" xmlns="http://www.w3.org/2000/svg" version="1.1" viewBox="0 0 35 35">
  <!-- Generator: Adobe Illustrator 29.1.0, SVG Export Plug-In . SVG Version: 2.1.0 Build 142)  -->
  <defs>
    <style>
      .st0 {
        fill: #443fec;
      }
    </style>
  </defs>
  <path class="st0" d="M33.49885,8.15357c-3.27302,0-5.9362,2.66058-5.9362,5.9304v10.31474c0,4.19151-3.41375,7.60192-7.60935,7.60192-4.19511,0-7.60838-3.41042-7.60838-7.60192v-3.16023c5.22147-.75381,9.25026-5.2417,9.25026-10.66403,0-2.0401-1.66143-3.69991-3.70353-3.69991h-1.02471V1.49969c0-.82844-.6719-1.49969-1.50115-1.49969s-1.50115.67125-1.50115,1.49969v5.37485h-6.1341V1.49969c0-.82844-.6719-1.49969-1.50115-1.49969s-1.50115.67125-1.50115,1.49969v5.37485h-1.02471c-2.04209,0-3.70353,1.65981-3.70353,3.69991,0,5.45418,4.07625,9.96428,9.34262,10.67806v3.14619c0,5.84546,4.76,10.6013,10.61068,10.6013,5.85117,0,10.61166-4.75584,10.61166-10.6013v-10.31474c0-1.61636,1.31644-2.93103,2.93389-2.93103.82876,0,1.50115-.67125,1.50115-1.49969s-.67239-1.49969-1.50115-1.49969ZM3.0023,10.57445c0-.38615.31469-.70054.70122-.70054h14.18813c.38653,0,.70122.31439.70122.70054,0,4.29451-3.49682,7.78841-7.79504,7.78841-4.29871,0-7.79553-3.4939-7.79553-7.78841Z"/>
</svg>